# xmcd
#
# Track frame offsets: 
#        150
#        11504
#        22660
#        34686
#        43871
#        54827
#        67580
#        78728
#        89124
#        99771
#        113261
#
# Disc length: 1675 seconds
#
# Revision: 0
# Processed by: cddbd v1.5.1PL2 Copyright (c) Steve Scherf et al.
# Submitted via: ExactAudioCopy v0.95b1
#
DISCID=7006890b
DTITLE=Tammy Wynette - The Ways To Love A Man
DYEAR=1900
DGENRE=Country
TTITLE0=The Ways To Love A Man
TTITLE1=The Twelfth Of Never
TTITLE2=I'll Share My World With You
TTITLE3=Enough Of A Woman
TTITLE4=Singing My Song
TTITLE5=He'll Never Take The Place Of You
TTITLE6=I Know
TTITLE7=Yearning (To Kiss You)
TTITLE8=These Two
TTITLE9=Where Could You Go (But To Her)
TTITLE10=Still Around
EXTD=
EXTT0=
EXTT1=
EXTT2=
EXTT3=
EXTT4=
EXTT5=
EXTT6=
EXTT7=
EXTT8=
EXTT9=
EXTT10=
PLAYORDER=
